# xmcd
#
# Track frame offsets: 
#        150
#        28481
#        53338
#        78128
#        109556
#        138423
#
# Disc length: 2064 seconds
#
# Revision: 0
# Processed by: cddbd v1.5.2PL0 Copyright (c) Steve Scherf et al.
# Submitted via: ExactAudioCopy v0.95a5
#
DISCID=41080e06
DTITLE=星文唱片 - 静心禅
DYEAR=2006
DGENRE=A Cappella
TTITLE0=智慧
TTITLE1=月之河
TTITLE2=海洋之心
TTITLE3=幻境
TTITLE4=菩提心
TTITLE5=惜缘
EXTD=
EXTT0=
EXTT1=
EXTT2=
EXTT3=
EXTT4=
EXTT5=
PLAYORDER=
